<svg width="22" height="22" viewBox="0 0 22 22" fill="none" xmlns="http://www.w3.org/2000/svg">
<path d="M21.6972 6.08499C21.2942 5.68104 20.6394 5.68199 20.2358 6.08598L16.6242 9.6966C16.5127 9.51287 16.3895 9.32067 16.2576 9.12082L20.7984 4.58006C21.202 4.17641 21.2001 3.52092 20.7977 3.11856C20.3941 2.71525 19.7399 2.71397 19.3363 3.11791L15.0992 7.35468C14.9761 7.16282 14.8519 6.9726 14.7265 6.78629L19.1293 2.38345C19.531 1.98143 19.532 1.32565 19.1296 0.922942C18.724 0.517704 18.0702 0.519938 17.6675 0.92234L13.4431 5.14681C13.277 4.98108 13.1087 4.84049 12.9346 4.71412L15.8849 1.7638C16.2873 1.36114 16.2857 0.705305 15.8834 0.30329C15.4794 -0.101046 14.8256 -0.100703 14.4228 0.301958C14.4228 0.301958 9.33853 5.37601 9.22827 5.49048C8.43773 6.11271 8.59439 3.41092 7.78229 1.9917C6.92274 0.488313 5.5009 1.31207 5.74209 3.38836C6.14543 6.89968 5.18366 11.2428 3.89469 12.5318L0 16.4265L4.98313 21.4096L8.54507 17.8479C9.74347 16.6499 11.7969 17.4478 14.9922 14.2528L21.6973 7.54739C22.1012 7.14349 22.1006 6.4877 21.6972 6.08499ZM3.34851 17.6878C3.05512 17.9815 2.57924 17.9815 2.28555 17.6881C1.99182 17.394 1.99182 16.9182 2.28555 16.6245C2.57924 16.3311 3.05512 16.3315 3.34851 16.6245C3.64255 16.9182 3.64255 17.394 3.34851 17.6878ZM3.80888 15.4828C3.63898 15.6524 3.36364 15.6524 3.19344 15.4828C3.0232 15.3123 3.0232 15.0373 3.19344 14.8667C3.36368 14.6968 3.63902 14.6968 3.80888 14.8667C3.97882 15.0373 3.97882 15.3123 3.80888 15.4828ZM5.7472 19.1273C5.49957 19.3746 5.09914 19.3746 4.85186 19.1273C4.60457 18.8797 4.60457 18.4792 4.85186 18.2316C5.09914 17.985 5.49991 17.985 5.7472 18.2316C5.99418 18.4792 5.99384 18.8797 5.7472 19.1273ZM6.08575 17.0961C5.83816 17.3434 5.4377 17.3434 5.19011 17.0965C4.94282 16.8489 4.94282 16.4481 5.19011 16.2011C5.4377 15.9535 5.83816 15.9535 6.08575 16.2011C6.33299 16.4481 6.33299 16.8489 6.08575 17.0961ZM6.51707 14.4811C6.18724 14.8106 5.65241 14.8106 5.32288 14.4811C4.9934 14.1516 4.9934 13.6174 5.32288 13.2875C5.65241 12.958 6.18724 12.958 6.51707 13.2875C6.8466 13.6174 6.8466 14.1516 6.51707 14.4811ZM8.202 16.4487C8.03241 16.6187 7.75676 16.6187 7.58652 16.4487C7.41628 16.2785 7.41662 16.0032 7.58652 15.8329C7.75676 15.663 8.03211 15.6633 8.202 15.8329C8.3719 16.0032 8.3719 16.2785 8.202 16.4487Z" fill="white"/>
</svg>
