<svg width="40" height="60" viewBox="0 0 40 60" fill="none" xmlns="http://www.w3.org/2000/svg">
<path d="M0.00692247 54.4053C-0.0417837 55.0477 0.167956 55.6831 0.591101 56.1753C1.01425 56.6675 1.61707 56.9771 2.27015 57.0378H37.7299C38.3829 56.9771 38.9857 56.6675 39.4089 56.1753C39.832 55.6831 40.0418 55.0477 39.9931 54.4053V18.1482H0.00692247V54.4053ZM4.35741 29.4454C4.35741 29.0065 4.53499 28.5856 4.85107 28.2753C5.16715 27.9649 5.59583 27.7906 6.04283 27.7906C6.48983 27.7906 6.91854 27.9649 7.23461 28.2753C7.55069 28.5856 7.72825 29.0065 7.72825 29.4454V37.222C7.72825 37.6608 7.55069 38.0818 7.23461 38.3921C6.91854 38.7025 6.48983 38.8768 6.04283 38.8768C5.59583 38.8768 5.16715 38.7025 4.85107 38.3921C4.53499 38.0818 4.35741 37.6608 4.35741 37.222V29.4454Z" fill="#B70004"/>
<path d="M39.9931 2.63147C40.0418 1.98927 39.832 1.3539 39.4088 0.861881C38.9857 0.369863 38.3828 0.060411 37.7298 0H2.27014C1.61715 0.060411 1.01433 0.369863 0.591158 0.861881C0.16799 1.3539 -0.0417755 1.98927 0.00691868 2.63147V17.4072H39.9931V2.63147ZM7.72824 11.999C7.64494 12.3771 7.43226 12.7158 7.12561 12.9588C6.81896 13.2017 6.43683 13.3341 6.04282 13.3341C5.64881 13.3341 5.26669 13.2017 4.96004 12.9588C4.65339 12.7158 4.44071 12.3771 4.3574 11.999V5.77622C4.44162 5.39887 4.65465 5.06108 4.9612 4.81891C5.26774 4.57674 5.64937 4.44473 6.04282 4.44473C6.43627 4.44473 6.81791 4.57674 7.12445 4.81891C7.43099 5.06108 7.64403 5.39887 7.72824 5.77622V11.999Z" fill="#B70004"/>
<path d="M12.0838 57.7788H4.53943V60.001H12.0838V57.7788Z" fill="#B70004"/>
<path d="M35.4607 57.7788H27.9163V60.001H35.4607V57.7788Z" fill="#B70004"/>
</svg>
