<svg width="14" height="14" viewBox="0 0 14 14" fill="none" xmlns="http://www.w3.org/2000/svg">
<path d="M14 7C14 10.866 10.866 14 7 14C3.13401 14 0 10.866 0 7C0 3.13401 3.13401 0 7 0C10.866 0 14 3.13401 14 7ZM1.27707 7C1.27707 10.1607 3.83932 12.7229 7 12.7229C10.1607 12.7229 12.7229 10.1607 12.7229 7C12.7229 3.83932 10.1607 1.27707 7 1.27707C3.83932 1.27707 1.27707 3.83932 1.27707 7Z" fill="white"/>
<path d="M6.99989 2.54547C6.64843 2.54547 6.36353 2.83038 6.36353 3.18183V7.29701C6.36353 7.29701 6.36353 7.46291 6.44415 7.5877C6.49812 7.69353 6.58224 7.78548 6.69278 7.84931L9.63265 9.54668C9.93703 9.72238 10.3262 9.61808 10.5019 9.31371C10.6776 9.00934 10.5734 8.62013 10.269 8.44443L7.63625 6.92442V3.18183C7.63625 2.83038 7.35135 2.54547 6.99989 2.54547Z" fill="white"/>
</svg>
