<svg width="20" height="20" viewBox="0 0 20 20" fill="none" xmlns="http://www.w3.org/2000/svg">
<path d="M16.4942 9.27565C17.1147 8.39347 17.0397 7.17195 17.0397 7.17195C17.0397 7.17195 15.5285 7.07863 14.654 7.95319C14.4314 8.17585 14.2717 8.43976 14.157 8.70952C14.0316 8.2073 13.8388 7.61081 13.5425 6.93347L12.3474 7.4562C12.6644 8.18081 12.9999 9.19913 13.0667 10.0322C12.6611 9.80139 12.1432 9.49389 11.5649 9.36714C5.40741 8.01691 6.75002 20 11.8437 20C13.2099 20 13.1934 19.6202 13.7317 19.6202C14.27 19.6202 14.2535 20 15.6197 20C20.5421 20 21.9612 8.80979 16.4942 9.27565Z" fill="white"/>
<path d="M0 0V4.23151V19.9999H8.65691C8.18996 19.5676 7.77355 19.0373 7.41473 18.4157C7.2159 18.0713 7.03895 17.7031 6.88403 17.3188H3.73279V16.0144H6.46262C6.31731 15.4309 6.22087 14.8282 6.18036 14.2235C6.17501 14.1439 6.17141 14.0646 6.16805 13.9855H3.73272V12.6812H6.20497C6.28059 11.9427 6.44985 11.2554 6.70637 10.6522H3.73272V9.34786H7.51031C8.29816 8.44466 9.38335 7.95661 10.6422 7.95665C10.6425 7.95665 10.643 7.95665 10.6433 7.95665C10.8101 7.95665 10.9806 7.96536 11.1538 7.98251C11.1533 7.98134 11.1528 7.98017 11.1522 7.97896L10.8635 7.31888H3.73272V6.01455H11.2419V6.51607L11.8245 6.26123L13.0196 5.7385L14.2146 5.21576L14.7079 6.34349C14.7966 6.30041 14.8857 6.26127 14.9747 6.22549V0H0ZM11.242 3.98549H3.73272V2.68116H11.2419V3.98549H11.242Z" fill="white"/>
</svg>
