<svg width="49" height="45" viewBox="0 0 49 45" fill="none" xmlns="http://www.w3.org/2000/svg">
<g filter="url(#filter0_d_20_1014)">
<path d="M10.5629 23.0026L24.5 37L38.4371 23.0026C40.0781 21.3545 41 19.1191 41 16.7883V16.3941C41 11.7582 37.258 8 32.6421 8C30.103 8 27.7017 9.15915 26.1156 11.1504L24.5 13.1786L22.8844 11.1504C21.2983 9.15915 18.897 8 16.358 8C11.742 8 8 11.7582 8 16.3941V16.7883C8 19.1191 8.92192 21.3545 10.5629 23.0026Z" fill="#B70004" fill-opacity="0.31" shape-rendering="crispEdges"/>
<path d="M32.6426 9.5C36.4237 9.50024 39.5 12.581 39.5 16.3945V16.7881C39.5 18.7232 38.7344 20.578 37.374 21.9443L24.5 34.874L11.626 21.9443C10.2655 20.578 9.5 18.7232 9.5 16.7881V16.3945C9.5 12.5809 12.577 9.5 16.3584 9.5C18.439 9.50014 20.4086 10.4501 21.7109 12.085L23.3271 14.1133L24.5 15.5859L25.6729 14.1133L27.2891 12.085C28.5914 10.45 30.5617 9.5 32.6426 9.5Z" stroke="#B70004" stroke-width="3" shape-rendering="crispEdges"/>
</g>
<defs>
<filter id="filter0_d_20_1014" x="0" y="0" width="49" height="45" filterUnits="userSpaceOnUse" color-interpolation-filters="sRGB">
<feFlood flood-opacity="0" result="BackgroundImageFix"/>
<feColorMatrix in="SourceAlpha" type="matrix" values="0 0 0 0 0 0 0 0 0 0 0 0 0 0 0 0 0 0 127 0" result="hardAlpha"/>
<feOffset/>
<feGaussianBlur stdDeviation="4"/>
<feComposite in2="hardAlpha" operator="out"/>
<feColorMatrix type="matrix" values="0 0 0 0 0.717647 0 0 0 0 0 0 0 0 0 0.0156863 0 0 0 1 0"/>
<feBlend mode="normal" in2="BackgroundImageFix" result="effect1_dropShadow_20_1014"/>
<feBlend mode="normal" in="SourceGraphic" in2="effect1_dropShadow_20_1014" result="shape"/>
</filter>
</defs>
</svg>
