<svg width="56" height="55" viewBox="0 0 56 55" fill="none" xmlns="http://www.w3.org/2000/svg">
<path d="M50.3809 27.4883L54.6309 21.1133C54.8273 20.7997 54.9515 20.4464 54.9948 20.0789C55.038 19.7114 54.9991 19.3389 54.8809 18.9883C54.7735 18.6342 54.5805 18.3121 54.3188 18.0504C54.0572 17.7888 53.735 17.5957 53.3809 17.4883L46.0059 14.4883L45.3809 7.11331C45.3697 6.75781 45.2864 6.40828 45.136 6.08597C44.9856 5.76365 44.7712 5.47526 44.5059 5.23831C44.2022 5.02108 43.8537 4.87464 43.486 4.80974C43.1183 4.74485 42.7407 4.76316 42.3809 4.86332L34.506 6.48831L29.3809 0.738315C28.8719 0.263835 28.2019 0 27.5059 0C26.81 0 26.14 0.263835 25.6309 0.738315L20.5059 6.48831L12.6309 4.86332C12.2712 4.76316 11.8936 4.74485 11.5259 4.80974C11.1582 4.87464 10.8097 5.02108 10.5059 5.23831C10.2407 5.47526 10.0263 5.76365 9.87591 6.08597C9.7255 6.40828 9.64216 6.75781 9.63095 7.11331L9.00595 14.4883L1.63095 17.4883C1.27686 17.5957 0.954724 17.7888 0.69308 18.0504C0.431435 18.3121 0.238357 18.6342 0.130948 18.9883C0.0127677 19.3389 -0.0261087 19.7114 0.0171238 20.0789C0.0603563 20.4464 0.18462 20.7997 0.380948 21.1133L4.63095 27.4883L0.380948 33.8633C0.192368 34.1765 0.0747859 34.5273 0.0364909 34.8909C-0.00180418 35.2545 0.0401198 35.6221 0.159307 35.9678C0.278495 36.3134 0.472045 36.6287 0.726315 36.8914C0.980585 37.1541 1.28938 37.3579 1.63095 37.4883L9.00595 40.4883L9.63095 47.8633C9.64216 48.2188 9.7255 48.5684 9.87591 48.8907C10.0263 49.213 10.2407 49.5014 10.5059 49.7383C10.8097 49.9556 11.1582 50.102 11.5259 50.1669C11.8936 50.2318 12.2712 50.2135 12.6309 50.1133L20.5059 48.4883L25.6309 54.1133C25.8656 54.3793 26.1541 54.5924 26.4774 54.7383C26.8006 54.8843 27.1513 54.9597 27.5059 54.9597C27.8606 54.9597 28.2113 54.8843 28.5345 54.7383C28.8578 54.5924 29.1463 54.3793 29.3809 54.1133L34.506 48.4883L42.3809 50.1133C42.7407 50.2135 43.1183 50.2318 43.486 50.1669C43.8537 50.102 44.2022 49.9556 44.5059 49.7383C44.7712 49.5014 44.9856 49.213 45.136 48.8907C45.2864 48.5684 45.3697 48.2188 45.3809 47.8633L46.0059 40.4883L53.3809 37.4883C53.7225 37.3579 54.0313 37.1541 54.2856 36.8914C54.5398 36.6287 54.7334 36.3134 54.8526 35.9678C54.9718 35.6221 55.0137 35.2545 54.9754 34.8909C54.9371 34.5273 54.8195 34.1765 54.6309 33.8633L50.3809 27.4883ZM20.0059 36.3633L14.7559 32.3633L13.3809 31.2383H13.2559L14.0059 32.9883L16.1309 37.9883L13.5059 38.9883L9.13095 28.2383L11.7559 27.2383L17.1309 31.2383L18.5059 32.3633C18.2891 31.807 18.0386 31.2643 17.7559 30.7383L15.7559 25.6133L18.3809 24.4883L22.7559 35.2383L20.0059 36.3633ZM24.1309 34.7383L19.7559 23.8633L28.0059 20.6133L28.8809 22.8633L23.3809 24.9883L24.1309 26.9883L28.8809 24.9883L29.7559 27.1133L25.0059 28.9883L25.8809 31.3633L31.5059 29.1133L32.3809 31.3633L24.1309 34.7383ZM41.5059 27.6133L38.2559 22.9883L37.131 21.1133H37.006C37.2146 21.8111 37.3815 22.5207 37.5059 23.2383L38.5059 28.8633L35.881 29.9883L28.5059 20.3633L31.2559 19.2383L34.1309 23.3633L35.756 25.8633C35.5394 24.9143 35.3725 23.9547 35.256 22.9883L34.3809 17.9883L36.8809 16.9883L39.7559 21.2383L41.2559 23.6133C41.2559 23.6133 41.0059 21.8633 40.7559 20.6133L40.0059 15.7383L42.6309 14.6133L44.1309 26.6133L41.5059 27.6133Z" fill="#B70004"/>
</svg>
