<svg width="24" height="25" viewBox="0 0 24 25" fill="none" xmlns="http://www.w3.org/2000/svg">
<path d="M12 16.625L15.9375 12.5M15.9375 12.5L12 8.375M15.9375 12.5H1.5M8.0625 5.96681V5.90028C8.0625 4.36012 8.0625 3.58948 8.34861 3.00123C8.60027 2.48377 9.00155 2.06338 9.49549 1.79974C10.057 1.5 10.7926 1.5 12.2628 1.5H18.3003C19.7704 1.5 20.5045 1.5 21.066 1.79974C21.5599 2.06338 21.9625 2.48377 22.2141 3.00123C22.5 3.5889 22.5 4.35861 22.5 5.89575V19.105C22.5 20.6421 22.5 21.4107 22.2141 21.9984C21.9625 22.5158 21.5599 22.9369 21.066 23.2005C20.505 23.5 19.7713 23.5 18.3041 23.5H12.2584C10.7912 23.5 10.0564 23.5 9.49549 23.2005C9.00155 22.9369 8.60027 22.5154 8.34861 21.998C8.0625 21.4097 8.0625 20.6401 8.0625 19.1V19.0312" stroke="#FFDDDD" stroke-width="3" stroke-linecap="round" stroke-linejoin="round"/>
</svg>
