<svg width="30" height="30" viewBox="0 0 30 30" fill="none" xmlns="http://www.w3.org/2000/svg">
<path d="M15 6C16.6568 6 18 4.65685 18 2.99999C18 1.34315 16.6568 0 15 0C13.3431 0 12 1.34315 12 2.99999C12 4.65685 13.3431 6 15 6Z" fill="#B70004"/>
<path d="M3 6C4.65685 6 6 4.65685 6 2.99999C6 1.34315 4.65685 0 3 0C1.34315 0 0 1.34315 0 2.99999C0 4.65685 1.34315 6 3 6Z" fill="#B70004"/>
<path d="M15 18C16.6568 18 18 16.6569 18 15C18 13.3431 16.6568 12 15 12C13.3431 12 12 13.3431 12 15C12 16.6569 13.3431 18 15 18Z" fill="#B70004"/>
<path d="M3 18C4.65685 18 6 16.6569 6 15C6 13.3431 4.65685 12 3 12C1.34315 12 0 13.3431 0 15C0 16.6569 1.34315 18 3 18Z" fill="#B70004"/>
<path d="M3 30C4.65685 30 6 28.6569 6 27C6 25.3431 4.65685 24 3 24C1.34315 24 0 25.3431 0 27C0 28.6569 1.34315 30 3 30Z" fill="#B70004"/>
<path d="M15 30C16.6569 30 18 28.6569 18 27C18 25.3431 16.6569 24 15 24C13.3431 24 12 25.3431 12 27C12 28.6569 13.3431 30 15 30Z" fill="#B70004"/>
<path d="M27 30C28.6569 30 30 28.6569 30 27C30 25.3431 28.6569 24 27 24C25.3431 24 24 25.3431 24 27C24 28.6569 25.3431 30 27 30Z" fill="#B70004"/>
<path d="M27 18C28.6569 18 30 16.6569 30 15C30 13.3431 28.6569 12 27 12C25.3431 12 24 13.3431 24 15C24 16.6569 25.3431 18 27 18Z" fill="#B70004"/>
<path d="M27 6C28.6569 6 30 4.65689 30 3C30 1.34311 28.6569 0 27 0C25.3431 0 24 1.34311 24 3C24 4.65689 25.3431 6 27 6Z" fill="#B70004"/>
</svg>
