<svg width="60" height="34" viewBox="0 0 60 34" fill="none" xmlns="http://www.w3.org/2000/svg">
<path d="M26.9697 24.0062C26.9697 24.2667 26.7481 24.478 26.4753 24.478H25.4334C25.1606 24.478 24.939 24.2667 24.939 24.0062V23.7912C24.939 23.5325 25.1606 23.3213 25.4334 23.3213H26.4753C26.7481 23.3213 26.9697 23.5326 26.9697 23.7912V24.0062Z" fill="#B70004"/>
<path d="M22.4378 22.1809H22.3499C22.0771 22.1809 21.8555 22.3923 21.8555 22.6509V23.2995C21.8555 23.5582 21.9818 23.7694 22.1998 23.7694H22.2547C22.491 23.7694 22.4379 23.9808 22.4379 24.2394V24.5418C22.4379 24.8042 22.6576 25.0118 22.9323 25.0118H23.6885C23.9613 25.0118 24.1829 24.8042 24.1829 24.5418V23.7694V22.6509C24.1829 22.3922 23.9613 22.1809 23.6885 22.1809H22.4378Z" fill="#B70004"/>
<path d="M28.5846 18.226C28.3521 18.226 28.1507 18.3808 28.1012 18.5958L27.8248 19.8073C27.7772 20.024 27.5739 20.1771 27.3414 20.1771H24.2414C23.9686 20.1771 23.7452 20.3885 23.7452 20.6471V21.0042C23.7452 21.2629 23.9686 21.4724 24.2414 21.4724H24.3421C24.6168 21.4724 24.8382 21.6838 24.8382 21.9442V22.1774C24.8382 22.4361 25.0598 22.6474 25.3327 22.6474H29.1706C29.4031 22.6474 29.6045 22.4943 29.6539 22.2776L30.456 18.7964C30.4889 18.6579 30.4505 18.5121 30.3589 18.4029C30.2637 18.2918 30.1227 18.2261 29.9726 18.2261H28.5846V18.226Z" fill="#B70004"/>
<path d="M31.637 17.2076C31.5931 17.4281 31.3899 17.5865 31.15 17.5865H28.9985C28.8502 17.5865 28.7111 17.5246 28.6177 17.4171C28.5224 17.3097 28.484 17.1675 28.5115 17.0291L28.8228 15.4825C28.8686 15.262 29.0718 15.1017 29.3098 15.1017H31.4612C31.6096 15.1017 31.7487 15.1636 31.844 15.273C31.9374 15.3786 31.9758 15.5207 31.9484 15.6592L31.637 17.2076Z" fill="#B70004"/>
<path d="M25.6878 28.0357C25.7977 27.9555 25.9423 27.9447 26.0614 28.0066C26.1822 28.0685 26.2573 28.1888 26.2573 28.3236V28.1888C26.2573 28.3837 26.4185 28.544 26.6144 28.544H28.0866C28.2826 28.544 28.4437 28.3837 28.4437 28.1888C28.4437 27.992 28.603 27.8317 28.8008 27.8317H28.9528C29.0572 27.8317 29.156 27.8773 29.2238 27.9519L31.1718 30.158C31.2285 30.2217 31.2597 30.3056 31.2597 30.393V32.4078C31.2597 32.5043 31.2213 32.5972 31.1517 32.6629L30.0182 33.7559C29.9523 33.8178 29.8626 33.8543 29.7692 33.8543H28.3099C28.1835 33.8543 28.0664 33.7886 28.0041 33.6813L27.6636 33.1093C27.6014 33.0018 27.4823 32.9363 27.356 32.9363H23.5034C23.3056 32.9363 23.1464 32.7759 23.1464 32.581V30.0634C23.1464 29.9487 23.1994 29.843 23.2928 29.7756L25.6878 28.0357Z" fill="#B70004"/>
<path d="M13.3685 32.1054C13.2549 32.4588 12.9254 32.7011 12.55 32.7011H12.3046C12.0318 32.7011 11.7754 32.5718 11.6125 32.3532C11.4514 32.1346 11.4056 31.8504 11.4862 31.5918L11.8817 30.3384C11.9953 29.9813 12.3267 29.7409 12.702 29.7409H12.9455C13.2202 29.7409 13.4765 29.8685 13.6376 30.0871C13.7988 30.3076 13.8463 30.5899 13.764 30.8485L13.3685 32.1054Z" fill="#B70004"/>
<path d="M38.3569 1.28072C38.3569 0.5721 38.9319 0.00012207 39.6441 0.00012207H56.3599C56.9385 0.00012207 57.4475 0.386376 57.6014 0.943782L59.4398 7.65119C59.5533 8.06286 59.4508 8.50554 59.1687 8.82802L54.9426 13.6628C54.6972 13.9433 54.3439 14.1036 53.9722 14.1036H53.3166C52.8131 14.1036 52.3571 14.3951 52.1466 14.8505C51.9362 15.3059 52.0129 15.8415 52.3426 16.2204L53.2874 17.3098C53.531 17.594 53.888 17.7561 54.2616 17.7561H58.7129C59.4251 17.7561 60.0001 18.3299 60.0001 19.0367V23.9116C60.0001 24.1667 59.9232 24.418 59.7803 24.6293L53.8019 33.4353C53.562 33.7886 53.1629 34 52.7344 34H50.8979C50.5372 34 50.1929 33.8469 49.9494 33.5846C49.7058 33.3187 49.585 32.9652 49.6143 32.6082L50.7002 20.0841C50.7386 19.6524 50.5556 19.2315 50.2113 18.9638L44.6852 14.6646C44.427 14.4678 44.2567 14.1782 44.2054 13.8576L43.4473 9.08662C43.3484 8.46357 42.8101 8.00631 42.1765 8.00631H39.6442C38.932 8.00631 38.3571 7.43247 38.3571 6.72572V1.28072H38.3569Z" fill="#B70004"/>
<path d="M5.15994 7.53822C5.15994 7.673 5.05002 7.78049 4.91643 7.78049H2.78326C2.64955 7.78049 2.5415 7.673 2.5415 7.53822V3.58882C2.5415 3.45579 2.64955 3.3483 2.78326 3.3483H4.91643C5.05014 3.3483 5.15994 3.45579 5.15994 3.58882V7.53822Z" fill="#B70004"/>
<path d="M1.72302 7.5382C1.72302 7.67298 1.6131 7.78047 1.47951 7.78047H0.765366C0.629897 7.78047 0.521851 7.67298 0.521851 7.5382V6.24839C0.521851 6.11537 0.629897 6.00787 0.765366 6.00787H1.47951C1.61322 6.00787 1.72302 6.11537 1.72302 6.24839V7.5382Z" fill="#B70004"/>
<path d="M18.9294 0.000117413C18.5961 0.000117413 18.294 0.193186 18.153 0.492L16.6387 3.7237C16.4978 4.02426 16.1938 4.21558 15.8605 4.21558H14.9211C14.6171 4.21558 14.3371 4.05527 14.1813 3.79656L12.8995 1.62698C12.7457 1.36652 12.4637 1.20622 12.1597 1.20622H10.4407C10.1166 1.20622 9.82184 1.38658 9.67535 1.67257L7.10824 6.72233C6.9068 7.11943 7.04602 7.6077 7.43238 7.83901L8.40105 8.42008C8.7893 8.65326 9.29461 8.54401 9.55101 8.17233L10.1388 7.31973C10.342 7.02278 10.7101 6.88614 11.058 6.97358L10.4447 6.81875C10.9007 6.93347 11.1771 7.39446 11.0654 7.84799L10.8347 8.78803C10.7413 9.16694 10.3971 9.43661 10.0016 9.43661H3.99176C3.83789 9.43661 3.68602 9.47672 3.55418 9.55681L0.421172 11.3966C0.161133 11.5514 0 11.83 0 12.1325V14.2055C0 14.6755 0.384492 15.0581 0.85875 15.0581H1.93723C2.40961 15.0581 2.79422 15.1766 2.79422 15.4844C2.79422 16.0563 3.17871 16.3387 3.65297 16.3387H3.57059C4.04297 16.3387 4.42758 16.0745 4.42758 15.4844C4.42758 15.1346 4.81207 15.0581 5.28633 15.0581H6.06082C6.53508 15.0581 6.91957 15.4406 6.91957 15.9107V16.1367C6.91957 16.6066 6.53508 16.9893 6.06082 16.9893H0.85875C0.384492 16.9893 0 17.3718 0 17.8436V23.8898C0 24.3634 0.384492 24.746 0.85875 24.746H3.51926C3.99164 24.746 4.37625 25.1285 4.37625 25.5986V32.0219C4.37625 32.4956 4.76074 32.8762 5.235 32.8762H9.36035C9.7302 32.8762 10.0598 32.6376 10.1752 32.2878L13.4638 22.2175C13.5444 21.9734 13.5096 21.7111 13.374 21.4961L11.543 18.6286C11.3031 18.2569 11.3891 17.7633 11.7444 17.4955L11.6784 17.5428C11.8286 17.4299 12.0135 17.368 12.2003 17.368H14.3517C14.674 17.368 14.967 17.5464 15.1153 17.8307L16.8805 21.2445C17.0179 21.5068 17.2834 21.6817 17.58 21.7036C17.8785 21.7273 18.1678 21.5906 18.3417 21.3502L21.0243 17.623C21.1854 17.399 21.4454 17.2659 21.7201 17.2659H23.7837C24.0748 17.2659 24.3477 17.1202 24.5051 16.8743L26.4277 13.894C26.6327 13.5752 26.9843 13.0614 27.2314 12.7737C27.5354 12.4239 28.0078 12.3475 28.0078 12.5988C28.0078 13.0688 28.3923 13.4514 28.8666 13.4514H28.8977C29.3006 13.4514 29.6503 13.1709 29.7363 12.781L30.2911 10.2416C30.3478 9.98655 30.5163 9.77168 30.7526 9.65684L34.444 7.86244C34.7388 7.72032 34.9255 7.42162 34.9255 7.09728V0.854355C34.9255 0.382525 34.541 0 34.0685 0H18.9294V0.000117413Z" fill="#B70004"/>
</svg>
