<svg width="270" height="270" viewBox="0 0 270 270" fill="none" xmlns="http://www.w3.org/2000/svg">
<g filter="url(#filter0_n_36_22)">
<circle cx="135" cy="135" r="135" fill="#B70004"/>
</g>
<path d="M70.744 178.712C66.2213 178.712 61.8693 178.029 57.688 176.664C53.592 175.384 50.264 173.208 47.704 170.136C45.144 167.064 43.864 162.925 43.864 157.72C43.864 152.173 44.9307 146.755 47.064 141.464C49.1973 136.173 52.056 131.267 55.64 126.744C59.224 122.136 63.2347 118.168 67.672 114.84C71.5973 111.853 76.12 109.421 81.24 107.544C86.4453 105.667 91.608 104.728 96.728 104.728C98.8613 104.728 100.867 104.899 102.744 105.24C104.621 105.496 106.541 106.093 108.504 107.032C110.211 107.8 111.576 108.781 112.6 109.976C113.624 111.085 114.136 112.365 114.136 113.816C114.136 113.987 114.136 114.2 114.136 114.456C114.136 114.712 114.093 114.925 114.008 115.096C113.667 116.461 112.856 118.04 111.576 119.832C110.381 121.539 109.443 123.331 108.76 125.208C108.675 125.549 108.205 125.848 107.352 126.104C106.499 126.275 106.157 126.189 106.328 125.848C107.011 124.739 107.523 123.373 107.864 121.752C108.291 120.131 108.504 118.509 108.504 116.888C108.504 115.693 108.376 114.584 108.12 113.56C107.949 112.451 107.608 111.512 107.096 110.744C106.243 109.208 104.92 108.141 103.128 107.544C101.336 106.947 99.416 106.648 97.368 106.648C95.4053 106.648 93.4427 106.861 91.48 107.288C89.5173 107.715 87.8107 108.184 86.36 108.696C81.4107 110.488 76.6747 113.304 72.152 117.144C68.1413 120.643 64.5573 124.696 61.4 129.304C58.328 133.912 55.896 138.648 54.104 143.512C52.312 148.376 51.416 153.027 51.416 157.464C51.416 161.987 52.3973 165.571 54.36 168.216C56.3227 170.861 58.8827 172.739 62.04 173.848C65.1973 174.957 68.6107 175.512 72.28 175.512C75.5227 175.512 78.7227 175.171 81.88 174.488C85.1227 173.805 88.0667 172.952 90.712 171.928C95.2347 170.221 99.288 168.131 102.872 165.656C106.541 163.181 109.955 159.981 113.112 156.056C113.539 155.629 113.837 155.416 114.008 155.416C114.264 155.416 114.392 155.587 114.392 155.928C114.392 156.611 114.051 157.421 113.368 158.36C110.467 162.285 107.181 165.571 103.512 168.216C99.8427 170.861 95.9173 173.037 91.736 174.744C88.92 175.853 85.6347 176.792 81.88 177.56C78.2107 178.328 74.4987 178.712 70.744 178.712ZM117.636 178.2C114.991 178.2 112.815 177.432 111.108 175.896C109.487 174.36 108.847 172.056 109.188 168.984C109.273 167.875 109.529 166.723 109.956 165.528C110.468 164.248 111.023 163.011 111.62 161.816C112.132 160.621 112.644 160.024 113.156 160.024C113.583 160.024 113.625 160.365 113.284 161.048C112.175 163.352 111.62 165.4 111.62 167.192C111.62 169.069 112.26 170.477 113.54 171.416C114.905 172.355 116.655 172.824 118.788 172.824C122.969 172.824 127.577 171.501 132.612 168.856C137.647 166.125 142.852 162.669 148.228 158.488C153.604 154.221 158.767 149.784 163.716 145.176C160.388 145.005 157.273 144.835 154.372 144.664C151.471 144.493 148.911 144.408 146.692 144.408C144.815 144.408 142.553 144.579 139.908 144.92C137.263 145.261 135.215 146.157 133.764 147.608C133.167 148.205 132.612 149.101 132.1 150.296C131.673 151.405 131.46 152.557 131.46 153.752C131.46 154.093 131.46 154.435 131.46 154.776C131.545 155.032 131.631 155.331 131.716 155.672C131.375 155.501 130.735 155.373 129.796 155.288C128.943 155.117 128.388 154.563 128.132 153.624C128.047 153.368 128.004 152.941 128.004 152.344C128.004 150.979 128.516 149.869 129.54 149.016C130.564 148.077 131.801 147.267 133.252 146.584C134.703 145.901 136.025 145.304 137.22 144.792C140.036 143.597 142.937 142.616 145.924 141.848C148.911 141.08 151.94 140.696 155.012 140.696C158.511 140.696 162.863 140.824 168.068 141.08C172.079 137.155 175.791 133.443 179.204 129.944C182.617 126.445 185.391 123.544 187.524 121.24C190.511 118.083 193.668 115.395 196.996 113.176C200.409 110.872 203.865 109.251 207.364 108.312H200.324C197.337 108.312 194.095 108.44 190.596 108.696C187.097 108.952 183.812 109.507 180.74 110.36C177.668 111.213 175.108 112.493 173.06 114.2C171.78 115.309 170.799 116.589 170.116 118.04C169.519 119.405 169.22 120.685 169.22 121.88C169.22 123.501 169.689 124.611 170.628 125.208C170.713 125.208 170.756 125.251 170.756 125.336C170.756 125.592 170.457 125.891 169.86 126.232C169.263 126.488 168.836 126.531 168.58 126.36C167.727 125.763 166.959 124.568 166.276 122.776C165.679 120.899 165.465 119.405 165.636 118.296C166.063 115.651 167.215 113.517 169.092 111.896C171.055 110.189 173.444 108.867 176.26 107.928C179.161 106.989 182.191 106.349 185.348 106.008C188.591 105.667 191.663 105.453 194.564 105.368C197.551 105.283 200.068 105.24 202.116 105.24H216.068C216.239 105.24 216.281 105.283 216.196 105.368C218.329 104.429 220.548 103.491 222.852 102.552C225.241 101.613 227.289 101.144 228.996 101.144C229.423 101.144 229.849 101.272 230.276 101.528C230.788 101.784 231.044 102.04 231.044 102.296C231.044 102.723 230.191 102.936 228.484 102.936C227.631 102.936 226.735 103.107 225.796 103.448C224.943 103.704 223.791 104.6 222.34 106.136C221.145 107.331 219.652 109.251 217.86 111.896C216.068 114.541 214.105 117.656 211.972 121.24C209.839 124.739 207.705 128.493 205.572 132.504C203.439 136.429 201.391 140.312 199.428 144.152C197.465 147.992 195.759 151.533 194.308 154.776C194.137 155.288 193.668 156.483 192.9 158.36C192.132 160.152 191.407 162.157 190.724 164.376C190.041 166.509 189.7 168.429 189.7 170.136C189.7 172.44 190.511 173.592 192.132 173.592C192.9 173.592 193.668 173.421 194.436 173.08C195.545 172.653 196.697 172.013 197.892 171.16C199.087 170.307 200.239 169.325 201.348 168.216C203.567 166.083 205.444 164.035 206.98 162.072C208.516 160.024 209.455 158.787 209.796 158.36C210.052 157.933 210.351 157.72 210.692 157.72C211.033 157.72 211.204 157.933 211.204 158.36C211.204 158.616 211.076 158.957 210.82 159.384C210.223 160.237 209.113 161.731 207.492 163.864C205.871 165.912 203.951 168.003 201.732 170.136C199.599 172.269 197.295 173.891 194.82 175C194.052 175.341 193.241 175.597 192.388 175.768C191.535 176.024 190.681 176.152 189.828 176.152C188.121 176.152 186.543 175.555 185.092 174.36C183.727 173.165 183.044 171.203 183.044 168.472C183.044 165.997 183.513 163.352 184.452 160.536C185.476 157.635 186.415 155.288 187.268 153.496C188.975 149.827 190.98 145.731 193.284 141.208C195.673 136.685 198.105 132.163 200.58 127.64C203.14 123.117 205.487 119.021 207.62 115.352C209.753 111.683 211.503 108.952 212.868 107.16C211.503 107.16 209.668 107.715 207.364 108.824C205.06 109.848 202.585 111.256 199.94 113.048C197.38 114.755 194.991 116.76 192.772 119.064C190.127 121.795 187.055 125.123 183.556 129.048C180.143 132.973 176.431 137.069 172.42 141.336C174.383 141.421 176.345 141.507 178.308 141.592C180.271 141.592 182.233 141.592 184.196 141.592C185.561 141.592 187.055 141.464 188.676 141.208C190.383 140.867 191.961 140.355 193.412 139.672C193.412 139.672 193.156 140.141 192.644 141.08C192.217 141.933 191.449 142.829 190.34 143.768C189.316 144.621 187.908 145.133 186.116 145.304C184.495 145.389 182.873 145.475 181.252 145.56C179.631 145.56 178.009 145.56 176.388 145.56C175.023 145.56 173.657 145.56 172.292 145.56C171.012 145.56 169.732 145.517 168.452 145.432C164.527 149.528 160.431 153.539 156.164 157.464C151.897 161.304 147.588 164.803 143.236 167.96C138.884 171.117 134.532 173.592 130.18 175.384C125.913 177.261 121.732 178.2 117.636 178.2Z" fill="white"/>
<path d="M208.121 73.8387C212.171 72.8406 215 69.2316 215 65.0635C215 60.075 210.942 56.0166 205.953 56.0166C204.531 56.0166 203.124 56.3574 201.852 57.008C200.179 54.522 197.354 53 194.349 53C190.806 53 187.666 55.0137 186.176 58.1825C184.895 57.5228 183.482 57.1766 182.047 57.1766C177.059 57.1766 173 61.2356 173 66.2241C173 70.2406 175.627 73.7374 179.441 74.8792C179.441 74.8792 179.295 92.4806 179.295 92.6813C179.295 95.3838 192.416 95.462 193.912 95.462C195.408 95.462 208.529 95.3832 208.529 92.6813C208.529 92.6152 208.557 92.4357 208.557 92.4357V78.4331C208.557 78.1147 208.3 77.8576 207.981 77.8576C207.663 77.8576 207.406 78.1154 207.406 78.4331V88.9091C206.147 89.564 201.594 90.4238 194.09 90.4238C186.162 90.4238 181.53 89.4646 180.593 88.8358V74.4396L180.155 73.8805C176.62 73.0104 174.151 69.8616 174.151 66.2241C174.151 61.8704 177.693 58.3287 182.047 58.3287C183.488 58.3287 184.907 58.7301 186.152 59.4892L186.989 59.2055C188.175 56.1355 191.063 54.1521 194.348 54.1521C197.133 54.1521 199.742 55.651 201.157 58.0649L201.946 58.2693C203.165 57.5489 204.551 57.1681 205.953 57.1681C210.306 57.1681 213.848 60.7098 213.848 65.0635C213.848 68.701 211.379 71.8505 207.844 72.7206C207.536 72.7964 207.348 73.1087 207.424 73.4179C207.5 73.7265 207.812 73.9139 208.121 73.8387ZM180.593 89.6853C183.768 91.2084 193.596 91.2303 194.091 91.2303C194.577 91.2303 204.059 91.209 207.407 89.7659V92.4357C207.407 92.4357 207.393 92.6031 207.398 92.5946C206.948 93.2967 201.886 94.3112 193.913 94.3112C186.203 94.3112 181.215 93.3628 180.487 92.6655L180.593 89.6853Z" fill="white"/>
<path d="M209.962 66.56C209.962 66.7825 210.142 66.9632 210.365 66.9632C210.587 66.9632 210.768 66.7831 210.768 66.56C210.768 63.2771 208.097 60.6055 204.814 60.6055C204.591 60.6055 204.411 60.7856 204.411 61.0082C204.411 61.2313 204.591 61.4114 204.814 61.4114C207.652 61.4114 209.962 63.721 209.962 66.56Z" fill="white"/>
<path d="M177.878 65.1435C177.58 65.9142 177.428 66.7285 177.428 67.5635C177.428 67.786 177.608 67.9667 177.831 67.9667C178.055 67.9667 178.235 67.7866 178.235 67.5635C178.235 66.828 178.367 66.1119 178.63 65.4334C178.71 65.226 178.607 64.9925 178.399 64.9125C178.192 64.8325 177.958 64.9349 177.878 65.1435Z" fill="white"/>
<path d="M187.783 62.3815C187.899 62.1917 187.839 61.9437 187.65 61.8279C185.241 60.3538 181.995 60.6055 179.849 62.3973C179.677 62.5398 179.654 62.7938 179.797 62.9642C179.877 63.06 179.992 63.1091 180.107 63.1091C180.197 63.1091 180.289 63.0782 180.364 63.0158C182.254 61.4398 185.106 61.2161 187.229 62.5149C187.419 62.6313 187.667 62.5719 187.783 62.3815Z" fill="white"/>
<path d="M195.231 56.8424C195.231 56.6199 195.051 56.4392 194.828 56.4392C192.729 56.4392 190.79 57.3948 189.505 59.0623C189.369 59.2388 189.402 59.4916 189.578 59.6274C189.651 59.6844 189.737 59.7117 189.824 59.7117C189.945 59.7117 190.064 59.6578 190.143 59.5547C191.274 58.0873 192.981 57.2457 194.828 57.2457C195.051 57.2457 195.231 57.0656 195.231 56.8424Z" fill="white"/>
<path d="M183.833 79.6263C183.61 79.6263 183.43 79.8064 183.43 80.0296V86.9851C183.43 87.2076 183.61 87.3883 183.833 87.3883C184.056 87.3883 184.237 87.2082 184.237 86.9851V80.0296C184.237 79.8064 184.056 79.6263 183.833 79.6263Z" fill="white"/>
<path d="M184.237 75.4462C184.237 75.2237 184.056 75.043 183.833 75.043C183.611 75.043 183.43 75.2231 183.43 75.4462V78.35C183.43 78.5726 183.61 78.7527 183.833 78.7527C184.056 78.7527 184.237 78.5726 184.237 78.35V75.4462Z" fill="white"/>
<path d="M190.244 87.882H190.248C190.47 87.8796 190.65 87.6983 190.647 87.4751L190.61 83.3762C190.607 83.1548 190.427 82.9772 190.207 82.9772H190.203C189.981 82.9796 189.802 83.1615 189.804 83.384L189.841 87.483C189.843 87.7043 190.023 87.882 190.244 87.882Z" fill="white"/>
<path d="M190.597 81.933L190.54 75.5087C190.538 75.2873 190.359 75.1097 190.137 75.1097H190.133C189.911 75.1121 189.733 75.2934 189.734 75.5165L189.791 81.9403C189.793 82.1616 189.972 82.3393 190.194 82.3393H190.198V82.3399C190.42 82.3375 190.599 82.1562 190.597 81.933Z" fill="white"/>
<path d="M196.441 87.3344C196.663 87.3344 196.844 87.1543 196.844 86.9318V81.8062C196.843 81.5831 196.663 81.403 196.441 81.403C196.218 81.403 196.037 81.5831 196.037 81.8062V86.9318C196.037 87.1543 196.218 87.3344 196.441 87.3344Z" fill="white"/>
<path d="M196.44 80.7348C196.663 80.7348 196.843 80.5547 196.843 80.3316V75.4995C196.843 75.277 196.663 75.0963 196.44 75.0963C196.217 75.0963 196.037 75.2764 196.037 75.4995V80.3316C196.037 80.5541 196.217 80.7348 196.44 80.7348Z" fill="white"/>
<path d="M202.744 79.3541C202.521 79.3541 202.34 79.5342 202.34 79.7574V86.7171C202.34 86.9403 202.521 87.1204 202.744 87.1204C202.967 87.1204 203.147 86.9403 203.147 86.7171V79.7574C203.147 79.5342 202.967 79.3541 202.744 79.3541Z" fill="white"/>
<path d="M203.147 75.7135C203.147 75.491 202.967 75.3103 202.744 75.3103C202.521 75.3103 202.34 75.4904 202.34 75.7135V78.393C202.34 78.6162 202.521 78.7963 202.744 78.7963C202.967 78.7963 203.147 78.6162 203.147 78.393V75.7135Z" fill="white"/>
<defs>
<filter id="filter0_n_36_22" x="0" y="0" width="270" height="270" filterUnits="userSpaceOnUse" color-interpolation-filters="sRGB">
<feFlood flood-opacity="0" result="BackgroundImageFix"/>
<feBlend mode="normal" in="SourceGraphic" in2="BackgroundImageFix" result="shape"/>
<feTurbulence type="fractalNoise" baseFrequency="2 2" stitchTiles="stitch" numOctaves="3" result="noise" seed="1049" />
<feColorMatrix in="noise" type="luminanceToAlpha" result="alphaNoise" />
<feComponentTransfer in="alphaNoise" result="coloredNoise1">
<feFuncA type="discrete" tableValues="1 1 1 1 1 1 1 1 1 1 1 1 1 1 1 1 1 1 1 1 1 1 1 1 1 1 1 1 1 1 1 1 1 1 1 1 1 1 1 1 1 1 1 1 1 1 1 1 1 1 1 0 0 0 0 0 0 0 0 0 0 0 0 0 0 0 0 0 0 0 0 0 0 0 0 0 0 0 0 0 0 0 0 0 0 0 0 0 0 0 0 0 0 0 0 0 0 0 0 0 "/>
</feComponentTransfer>
<feComposite operator="in" in2="shape" in="coloredNoise1" result="noise1Clipped" />
<feFlood flood-color="rgba(0, 0, 0, 0.36)" result="color1Flood" />
<feComposite operator="in" in2="noise1Clipped" in="color1Flood" result="color1" />
<feMerge result="effect1_noise_36_22">
<feMergeNode in="shape" />
<feMergeNode in="color1" />
</feMerge>
</filter>
</defs>
</svg>
