<svg width="302" height="138" viewBox="0 0 302 138" fill="none" xmlns="http://www.w3.org/2000/svg">
<path d="M23.808 97.784C20.416 97.784 17.152 97.272 14.016 96.248C10.944 95.288 8.448 93.656 6.528 91.352C4.608 89.048 3.648 85.944 3.648 82.04C3.648 77.88 4.448 73.816 6.048 69.848C7.648 65.88 9.792 62.2 12.48 58.808C15.168 55.352 18.176 52.376 21.504 49.88C24.448 47.64 27.84 45.816 31.68 44.408C35.584 43 39.456 42.296 43.296 42.296C44.896 42.296 46.4 42.424 47.808 42.68C49.216 42.872 50.656 43.32 52.128 44.024C53.408 44.6 54.432 45.336 55.2 46.232C55.968 47.064 56.352 48.024 56.352 49.112C56.352 49.24 56.352 49.4 56.352 49.592C56.352 49.784 56.32 49.944 56.256 50.072C56 51.096 55.392 52.28 54.432 53.624C53.536 54.904 52.832 56.248 52.32 57.656C52.256 57.912 51.904 58.136 51.264 58.328C50.624 58.456 50.368 58.392 50.496 58.136C51.008 57.304 51.392 56.28 51.648 55.064C51.968 53.848 52.128 52.632 52.128 51.416C52.128 50.52 52.032 49.688 51.84 48.92C51.712 48.088 51.456 47.384 51.072 46.808C50.432 45.656 49.44 44.856 48.096 44.408C46.752 43.96 45.312 43.736 43.776 43.736C42.304 43.736 40.832 43.896 39.36 44.216C37.888 44.536 36.608 44.888 35.52 45.272C31.808 46.616 28.256 48.728 24.864 51.608C21.856 54.232 19.168 57.272 16.8 60.728C14.496 64.184 12.672 67.736 11.328 71.384C9.984 75.032 9.312 78.52 9.312 81.848C9.312 85.24 10.048 87.928 11.52 89.912C12.992 91.896 14.912 93.304 17.28 94.136C19.648 94.968 22.208 95.384 24.96 95.384C27.392 95.384 29.792 95.128 32.16 94.616C34.592 94.104 36.8 93.464 38.784 92.696C42.176 91.416 45.216 89.848 47.904 87.992C50.656 86.136 53.216 83.736 55.584 80.792C55.904 80.472 56.128 80.312 56.256 80.312C56.448 80.312 56.544 80.44 56.544 80.696C56.544 81.208 56.288 81.816 55.776 82.52C53.6 85.464 51.136 87.928 48.384 89.912C45.632 91.896 42.688 93.528 39.552 94.808C37.44 95.64 34.976 96.344 32.16 96.92C29.408 97.496 26.624 97.784 23.808 97.784ZM68.097 95.576C67.137 95.576 66.273 95.384 65.505 95C64.801 94.616 64.449 93.912 64.449 92.888C64.449 92.312 64.577 91.672 64.833 90.968C65.409 89.496 66.177 87.704 67.137 85.592C68.161 83.48 69.185 81.432 70.209 79.448C71.233 77.4 72.033 75.736 72.609 74.456C72.993 73.688 73.185 73.144 73.185 72.824C73.185 72.248 72.865 72.12 72.225 72.44C71.585 72.76 70.881 73.208 70.113 73.784C69.345 74.36 68.769 74.808 68.385 75.128C66.721 76.664 64.961 78.488 63.105 80.6C61.313 82.648 59.649 84.824 58.113 87.128C56.641 89.368 55.489 91.608 54.657 93.848C54.593 94.232 54.177 94.552 53.409 94.808C52.641 95.064 51.937 95.192 51.297 95.192C50.273 95.192 49.889 94.872 50.145 94.232C51.617 90.904 53.121 87.224 54.657 83.192C56.257 79.16 58.049 75.032 60.033 70.808C61.505 67.608 63.137 64.312 64.929 60.92C66.785 57.528 68.833 54.296 71.073 51.224C73.313 48.088 75.777 45.336 78.465 42.968C80.833 40.92 83.425 39.256 86.241 37.976C89.121 36.632 92.225 35.96 95.553 35.96C97.025 35.96 98.305 36.28 99.393 36.92C100.481 37.496 101.089 38.552 101.217 40.088V40.952C101.217 41.848 101.121 42.744 100.929 43.64C100.865 43.896 100.609 44.024 100.161 44.024C99.969 44.024 99.905 43.992 99.969 43.928C100.225 42.264 99.777 41.08 98.625 40.376C97.537 39.672 96.129 39.32 94.401 39.32C91.265 39.32 88.385 39.896 85.761 41.048C83.137 42.2 80.705 43.736 78.465 45.656C75.009 48.664 72.001 52.504 69.441 57.176C66.881 61.848 64.673 66.616 62.817 71.48C61.921 73.848 61.025 76.216 60.129 78.584C59.297 80.952 58.497 83.16 57.729 85.208C60.609 81.368 63.361 78.072 65.985 75.32C68.673 72.568 71.009 70.616 72.993 69.464C74.593 68.568 76.033 68.12 77.313 68.12C78.529 68.12 79.137 68.632 79.137 69.656C79.137 70.552 78.689 71.704 77.793 73.112C77.345 73.816 76.641 75 75.681 76.664C74.785 78.328 73.825 80.152 72.801 82.136C71.841 84.056 71.009 85.848 70.305 87.512C69.601 89.176 69.249 90.392 69.249 91.16C69.249 92.184 69.697 92.696 70.593 92.696C71.105 92.696 71.681 92.536 72.321 92.216C73.025 91.896 73.537 91.608 73.857 91.352C75.585 90.072 77.281 88.504 78.945 86.648C80.609 84.792 82.017 83.16 83.169 81.752C83.233 81.688 83.265 81.784 83.265 82.04C83.265 82.296 83.201 82.68 83.073 83.192C83.009 83.64 82.817 84.024 82.497 84.344C81.793 85.304 81.057 86.232 80.289 87.128C79.585 87.96 78.881 88.792 78.177 89.624C76.961 91.032 75.489 92.376 73.761 93.656C72.097 94.936 70.209 95.576 68.097 95.576ZM87.5798 95.768C84.9558 95.768 83.1318 95.256 82.1078 94.232C81.0838 93.208 80.5718 91.96 80.5718 90.488C80.5718 88.632 81.0518 86.648 82.0117 84.536C83.0358 82.424 83.9958 80.632 84.8918 79.16C85.9158 77.624 87.2918 76.024 89.0198 74.36C90.7478 72.696 92.6358 71.288 94.6838 70.136C96.7318 68.984 98.7158 68.408 100.636 68.408C102.3 68.408 103.452 68.824 104.092 69.656C104.732 70.424 105.052 71.352 105.052 72.44C105.052 74.424 104.444 76.056 103.228 77.336C102.076 78.616 100.636 79.672 98.9078 80.504C97.1798 81.272 95.5158 81.912 93.9158 82.424C92.9558 82.68 91.8358 82.936 90.5558 83.192C89.2758 83.448 88.0598 83.576 86.9078 83.576C86.4598 84.728 86.1078 85.848 85.8518 86.936C85.5958 88.024 85.4678 89.016 85.4678 89.912C85.4678 91 85.7238 91.896 86.2358 92.6C86.8118 93.304 87.7398 93.656 89.0198 93.656C89.5318 93.656 90.1398 93.592 90.8438 93.464C91.5478 93.336 92.3158 93.144 93.1478 92.888C95.0678 92.248 96.9558 91.224 98.8118 89.816C100.668 88.408 102.364 86.904 103.9 85.304C105.5 83.64 106.716 82.264 107.548 81.176C107.74 81.368 107.836 81.592 107.836 81.848C107.836 82.168 107.612 82.68 107.164 83.384C105.884 85.176 104.22 87.032 102.172 88.952C100.124 90.872 97.8518 92.504 95.3558 93.848C92.8598 95.128 90.2678 95.768 87.5798 95.768ZM87.6758 81.656C88.5078 81.72 89.4358 81.72 90.4598 81.656C91.5478 81.528 92.6038 81.304 93.6278 80.984C96.2518 80.216 98.1398 79 99.2918 77.336C100.508 75.608 101.116 74.072 101.116 72.728C101.116 71.96 100.956 71.32 100.636 70.808C100.316 70.296 99.8038 70.04 99.0998 70.04C97.2438 70.04 95.5798 70.744 94.1078 72.152C92.6358 73.496 91.3558 75.064 90.2678 76.856C89.1798 78.648 88.3158 80.248 87.6758 81.656ZM83.742 116.696C81.246 116.696 79.166 116.28 77.502 115.448C75.774 114.68 74.622 113.496 74.046 111.896C73.982 111.704 73.95 111.512 73.95 111.32C73.886 111.128 73.854 110.904 73.854 110.648C73.854 109.688 74.078 108.6 74.526 107.384C74.974 106.232 75.454 104.984 75.966 103.64C76.158 103.256 76.382 103.064 76.638 103.064C77.086 103.064 77.214 103.384 77.022 104.024C76.574 104.984 76.35 106.008 76.35 107.096C76.35 109.336 77.342 111.128 79.326 112.472C81.246 113.88 83.454 114.584 85.95 114.584C87.87 114.584 89.726 114.136 91.518 113.24C94.526 111.704 96.99 109.592 98.91 106.904C100.83 104.216 102.526 101.496 103.998 98.744C106.238 94.456 108.158 89.976 109.758 85.304C111.422 80.568 113.182 75.896 115.038 71.288H112.83C112.51 71.288 112.158 71.32 111.774 71.384C111.39 71.448 111.038 71.512 110.718 71.576L110.526 71.48C110.654 70.776 111.262 70.168 112.35 69.656C113.502 69.08 114.398 68.792 115.038 68.792H116.19C117.15 66.488 118.27 63.96 119.55 61.208C120.894 58.456 122.334 55.704 123.87 52.952C125.406 50.136 127.07 47.576 128.862 45.272C130.718 42.968 132.638 41.144 134.622 39.8C137.886 37.496 141.502 36.344 145.47 36.344C146.238 36.344 146.974 36.6 147.678 37.112C148.446 37.56 148.798 38.264 148.734 39.224L148.446 42.68C148.446 42.808 148.35 42.904 148.158 42.968C147.966 43.032 147.838 43 147.774 42.872C147.518 41.592 146.814 40.664 145.662 40.088C144.574 39.448 143.294 39.128 141.822 39.128C139.454 39.128 137.278 39.896 135.294 41.432C133.374 42.968 131.294 45.816 129.054 49.976C128.222 51.576 127.294 53.464 126.27 55.64C125.31 57.816 124.35 60.056 123.39 62.36C122.43 64.664 121.502 66.808 120.606 68.792H127.518C127.966 68.792 128.414 68.792 128.862 68.792C129.374 68.728 129.854 68.664 130.302 68.6C130.302 68.856 130.11 69.112 129.726 69.368C129.406 69.56 129.118 69.72 128.862 69.848C127.262 70.68 125.758 71.16 124.35 71.288C122.942 71.352 121.342 71.352 119.55 71.288C118.142 74.808 116.798 78.168 115.518 81.368C114.302 84.504 112.958 87.576 111.486 90.584C110.27 93.272 108.766 96.12 106.974 99.128C105.182 102.136 103.134 104.984 100.83 107.672C98.526 110.36 95.966 112.536 93.15 114.2C90.27 115.864 87.134 116.696 83.742 116.696ZM144.758 97.4C142.774 97.4 141.142 96.824 139.862 95.672C138.646 94.52 138.166 92.792 138.422 90.488C138.486 89.656 138.678 88.792 138.998 87.896C139.382 86.936 139.798 86.008 140.246 85.112C140.63 84.216 141.014 83.768 141.398 83.768C141.718 83.768 141.75 84.024 141.494 84.536C140.662 86.264 140.246 87.8 140.246 89.144C140.246 90.552 140.726 91.608 141.686 92.312C142.71 93.016 144.022 93.368 145.622 93.368C148.758 93.368 152.214 92.376 155.99 90.392C159.766 88.344 163.67 85.752 167.702 82.616C171.734 79.416 175.606 76.088 179.318 72.632C176.822 72.504 174.486 72.376 172.31 72.248C170.134 72.12 168.214 72.056 166.55 72.056C165.142 72.056 163.446 72.184 161.462 72.44C159.478 72.696 157.942 73.368 156.854 74.456C156.406 74.904 155.99 75.576 155.606 76.472C155.286 77.304 155.126 78.168 155.126 79.064C155.126 79.32 155.126 79.576 155.126 79.832C155.19 80.024 155.254 80.248 155.318 80.504C155.062 80.376 154.582 80.28 153.878 80.216C153.238 80.088 152.822 79.672 152.63 78.968C152.566 78.776 152.534 78.456 152.534 78.008C152.534 76.984 152.918 76.152 153.686 75.512C154.454 74.808 155.382 74.2 156.47 73.688C157.558 73.176 158.55 72.728 159.446 72.344C161.558 71.448 163.734 70.712 165.974 70.136C168.214 69.56 170.486 69.272 172.79 69.272C175.414 69.272 178.678 69.368 182.582 69.56C185.59 66.616 188.374 63.832 190.934 61.208C193.494 58.584 195.574 56.408 197.174 54.68C199.414 52.312 201.782 50.296 204.278 48.632C206.838 46.904 209.43 45.688 212.054 44.984H206.774C204.534 44.984 202.102 45.08 199.478 45.272C196.854 45.464 194.39 45.88 192.086 46.52C189.782 47.16 187.862 48.12 186.326 49.4C185.366 50.232 184.63 51.192 184.118 52.28C183.67 53.304 183.446 54.264 183.446 55.16C183.446 56.376 183.798 57.208 184.502 57.656C184.566 57.656 184.598 57.688 184.598 57.752C184.598 57.944 184.374 58.168 183.926 58.424C183.478 58.616 183.158 58.648 182.966 58.52C182.326 58.072 181.75 57.176 181.238 55.832C180.79 54.424 180.63 53.304 180.758 52.472C181.078 50.488 181.942 48.888 183.35 47.672C184.822 46.392 186.614 45.4 188.726 44.696C190.902 43.992 193.174 43.512 195.542 43.256C197.974 43 200.278 42.84 202.454 42.776C204.694 42.712 206.582 42.68 208.118 42.68H218.582C218.71 42.68 218.742 42.712 218.678 42.776C220.278 42.072 221.942 41.368 223.67 40.664C225.462 39.96 226.998 39.608 228.278 39.608C228.598 39.608 228.918 39.704 229.238 39.896C229.622 40.088 229.814 40.28 229.814 40.472C229.814 40.792 229.174 40.952 227.894 40.952C227.254 40.952 226.582 41.08 225.878 41.336C225.238 41.528 224.374 42.2 223.286 43.352C222.39 44.248 221.27 45.688 219.926 47.672C218.582 49.656 217.11 51.992 215.51 54.68C213.91 57.304 212.31 60.12 210.71 63.128C209.11 66.072 207.574 68.984 206.102 71.864C204.63 74.744 203.35 77.4 202.262 79.832C202.134 80.216 201.782 81.112 201.206 82.52C200.63 83.864 200.086 85.368 199.574 87.032C199.062 88.632 198.806 90.072 198.806 91.352C198.806 93.08 199.414 93.944 200.63 93.944C201.206 93.944 201.782 93.816 202.358 93.56C203.19 93.24 204.054 92.76 204.95 92.12C205.846 91.48 206.71 90.744 207.542 89.912C209.206 88.312 210.614 86.776 211.766 85.304C212.918 83.768 213.622 82.84 213.878 82.52C214.07 82.2 214.294 82.04 214.55 82.04C214.806 82.04 214.934 82.2 214.934 82.52C214.934 82.712 214.838 82.968 214.646 83.288C214.198 83.928 213.366 85.048 212.15 86.648C210.934 88.184 209.494 89.752 207.83 91.352C206.23 92.952 204.502 94.168 202.646 95C202.07 95.256 201.462 95.448 200.822 95.576C200.182 95.768 199.542 95.864 198.902 95.864C197.622 95.864 196.438 95.416 195.35 94.52C194.326 93.624 193.814 92.152 193.814 90.104C193.814 88.248 194.166 86.264 194.87 84.152C195.638 81.976 196.342 80.216 196.982 78.872C198.262 76.12 199.766 73.048 201.494 69.656C203.286 66.264 205.11 62.872 206.966 59.48C208.886 56.088 210.646 53.016 212.246 50.264C213.846 47.512 215.158 45.464 216.182 44.12C215.158 44.12 213.782 44.536 212.054 45.368C210.326 46.136 208.47 47.192 206.486 48.536C204.566 49.816 202.774 51.32 201.11 53.048C199.126 55.096 196.822 57.592 194.198 60.536C191.638 63.48 188.854 66.552 185.846 69.752C187.318 69.816 188.79 69.88 190.262 69.944C191.734 69.944 193.206 69.944 194.678 69.944C195.702 69.944 196.822 69.848 198.038 69.656C199.318 69.4 200.502 69.016 201.59 68.504C201.59 68.504 201.398 68.856 201.014 69.56C200.694 70.2 200.118 70.872 199.286 71.576C198.518 72.216 197.462 72.6 196.118 72.728C194.902 72.792 193.686 72.856 192.47 72.92C191.254 72.92 190.038 72.92 188.822 72.92C187.798 72.92 186.774 72.92 185.75 72.92C184.79 72.92 183.83 72.888 182.87 72.824C179.926 75.896 176.854 78.904 173.654 81.848C170.454 84.728 167.222 87.352 163.958 89.72C160.694 92.088 157.43 93.944 154.166 95.288C150.966 96.696 147.83 97.4 144.758 97.4ZM219.118 96.536C217.966 96.536 216.75 96.376 215.47 96.056C214.19 95.736 213.038 95.224 212.014 94.52C211.054 93.752 210.414 92.728 210.094 91.448C210.03 91.256 209.998 90.968 209.998 90.584C209.998 89.688 210.19 88.696 210.574 87.608C211.022 86.52 211.566 85.752 212.206 85.304C212.462 85.176 212.654 85.176 212.782 85.304C212.974 85.432 213.006 85.56 212.878 85.688C212.814 85.88 212.718 86.136 212.59 86.456C212.462 86.712 212.366 87 212.302 87.32C212.11 88.984 212.462 90.456 213.358 91.736C213.742 92.248 214.19 92.728 214.702 93.176C215.278 93.624 215.822 94.008 216.334 94.328C216.782 94.584 217.326 94.776 217.966 94.904C218.606 94.968 219.246 95 219.886 95C220.91 95 221.902 94.872 222.862 94.616C223.822 94.36 224.526 93.944 224.974 93.368C225.806 92.344 226.222 91.192 226.222 89.912C226.222 88.952 225.966 87.928 225.454 86.84C224.942 85.752 224.142 84.6 223.054 83.384C222.35 82.616 221.678 81.784 221.038 80.888C220.398 79.992 219.982 79.032 219.79 78.008C219.726 77.816 219.662 77.624 219.598 77.432C219.598 77.24 219.598 77.048 219.598 76.856C218.766 78.072 217.902 79.224 217.006 80.312C216.174 81.336 215.438 82.232 214.798 83C214.542 83.384 214.318 83.576 214.126 83.576C213.998 83.576 213.934 83.448 213.934 83.192C213.934 82.616 214.19 82.008 214.702 81.368C215.214 80.792 215.79 80.088 216.43 79.256C217.07 78.36 217.582 77.656 217.966 77.144C219.054 75.544 219.854 74.296 220.366 73.4C220.942 72.44 221.55 71.576 222.19 70.808C222.894 69.976 223.758 69.304 224.782 68.792C225.87 68.28 226.99 68.024 228.142 68.024C229.486 68.024 230.702 68.248 231.79 68.696C232.942 69.08 233.55 70.104 233.614 71.768C233.614 72.536 233.454 73.336 233.134 74.168C232.878 74.936 232.59 75.672 232.27 76.376C232.078 76.76 231.79 77.048 231.406 77.24C231.086 77.368 230.926 77.304 230.926 77.048C230.926 76.792 230.958 76.504 231.022 76.184C231.086 75.864 231.118 75.576 231.118 75.32C231.118 74.232 230.926 73.272 230.542 72.44C230.222 71.544 229.742 70.904 229.102 70.52C228.462 70.072 227.79 69.848 227.086 69.848C226.062 69.848 225.07 70.264 224.11 71.096C223.15 71.864 222.67 72.888 222.67 74.168C222.67 74.296 222.67 74.456 222.67 74.648C222.67 74.84 222.702 75 222.766 75.128C223.022 76.152 223.79 77.304 225.07 78.584C226.35 79.864 227.342 80.984 228.046 81.944C229.262 83.608 229.87 85.304 229.87 87.032C229.87 88.76 229.358 90.36 228.334 91.832C227.374 93.24 226.062 94.36 224.398 95.192C222.798 96.088 221.038 96.536 219.118 96.536ZM241.43 96.536C240.278 96.536 239.062 96.376 237.782 96.056C236.502 95.736 235.35 95.224 234.326 94.52C233.366 93.752 232.726 92.728 232.406 91.448C232.342 91.256 232.31 90.968 232.31 90.584C232.31 89.688 232.502 88.696 232.886 87.608C233.334 86.52 233.878 85.752 234.518 85.304C234.774 85.176 234.966 85.176 235.094 85.304C235.286 85.432 235.318 85.56 235.19 85.688C235.126 85.88 235.03 86.136 234.902 86.456C234.774 86.712 234.678 87 234.614 87.32C234.422 88.984 234.774 90.456 235.67 91.736C236.054 92.248 236.502 92.728 237.014 93.176C237.59 93.624 238.134 94.008 238.646 94.328C239.094 94.584 239.638 94.776 240.278 94.904C240.918 94.968 241.558 95 242.198 95C243.222 95 244.214 94.872 245.174 94.616C246.134 94.36 246.838 93.944 247.286 93.368C248.118 92.344 248.534 91.192 248.534 89.912C248.534 88.952 248.278 87.928 247.766 86.84C247.254 85.752 246.454 84.6 245.366 83.384C244.662 82.616 243.99 81.784 243.35 80.888C242.71 79.992 242.294 79.032 242.102 78.008C242.038 77.816 241.974 77.624 241.91 77.432C241.91 77.24 241.91 77.048 241.91 76.856C241.078 78.072 240.214 79.224 239.318 80.312C238.486 81.336 237.75 82.232 237.11 83C236.854 83.384 236.63 83.576 236.438 83.576C236.31 83.576 236.246 83.448 236.246 83.192C236.246 82.616 236.502 82.008 237.014 81.368C237.526 80.792 238.102 80.088 238.742 79.256C239.382 78.36 239.894 77.656 240.278 77.144C241.366 75.544 242.166 74.296 242.678 73.4C243.254 72.44 243.862 71.576 244.502 70.808C245.206 69.976 246.07 69.304 247.094 68.792C248.182 68.28 249.302 68.024 250.454 68.024C251.798 68.024 253.014 68.248 254.102 68.696C255.254 69.08 255.862 70.104 255.926 71.768C255.926 72.536 255.766 73.336 255.446 74.168C255.19 74.936 254.902 75.672 254.582 76.376C254.39 76.76 254.102 77.048 253.718 77.24C253.398 77.368 253.238 77.304 253.238 77.048C253.238 76.792 253.27 76.504 253.334 76.184C253.398 75.864 253.43 75.576 253.43 75.32C253.43 74.232 253.238 73.272 252.854 72.44C252.534 71.544 252.054 70.904 251.414 70.52C250.774 70.072 250.102 69.848 249.398 69.848C248.374 69.848 247.382 70.264 246.422 71.096C245.462 71.864 244.982 72.888 244.982 74.168C244.982 74.296 244.982 74.456 244.982 74.648C244.982 74.84 245.014 75 245.078 75.128C245.334 76.152 246.102 77.304 247.382 78.584C248.662 79.864 249.654 80.984 250.358 81.944C251.574 83.608 252.182 85.304 252.182 87.032C252.182 88.76 251.67 90.36 250.646 91.832C249.686 93.24 248.374 94.36 246.71 95.192C245.11 96.088 243.35 96.536 241.43 96.536ZM277.951 58.328C277.055 58.328 276.415 58.04 276.031 57.464C275.775 57.144 275.647 56.728 275.647 56.216C275.647 55.192 276.127 54.36 277.087 53.72C277.791 53.336 278.431 53.144 279.007 53.144C279.967 53.144 280.639 53.432 281.023 54.008C281.279 54.328 281.407 54.744 281.407 55.256C281.407 56.28 280.895 57.112 279.871 57.752C279.295 58.136 278.655 58.328 277.951 58.328ZM261.247 95.288C260.607 95.288 260.063 95.16 259.615 94.904C259.231 94.648 259.039 94.168 259.039 93.464C259.039 92.568 259.263 91.512 259.711 90.296C260.223 89.08 260.767 87.864 261.343 86.648C261.983 85.432 262.463 84.44 262.783 83.672C263.231 82.776 263.775 81.624 264.415 80.216C265.119 78.744 265.759 77.368 266.335 76.088C266.975 74.744 267.423 73.816 267.679 73.304C266.783 74.264 265.695 75.48 264.415 76.952C263.199 78.36 262.047 79.736 260.959 81.08C259.871 82.424 259.039 83.48 258.463 84.248C258.271 84.504 258.111 84.632 257.983 84.632C257.855 84.632 257.791 84.472 257.791 84.152C257.791 83.64 257.951 83.16 258.271 82.712C259.487 81.176 260.831 79.448 262.303 77.528C263.839 75.608 265.215 73.848 266.431 72.248C267.647 70.584 268.415 69.496 268.735 68.984C269.439 68.856 270.463 68.664 271.807 68.408C273.215 68.152 274.175 67.8 274.687 67.352C274.879 67.16 275.071 67.064 275.263 67.064C275.391 67.064 275.455 67.192 275.455 67.448C275.519 67.64 275.455 67.864 275.263 68.12C274.879 68.568 274.207 69.656 273.247 71.384C272.287 73.112 271.263 75.032 270.175 77.144C269.151 79.192 268.191 81.048 267.295 82.712C266.399 84.44 265.631 86.104 264.991 87.704C264.351 89.304 264.031 90.456 264.031 91.16C264.031 92.056 264.479 92.504 265.375 92.504C266.207 92.504 267.263 91.992 268.543 90.968C269.887 89.944 271.231 88.728 272.575 87.32C273.919 85.848 275.103 84.504 276.127 83.288C276.447 82.904 276.831 82.456 277.279 81.944C277.791 81.368 278.111 81.016 278.239 80.888C278.367 81.016 278.431 81.24 278.431 81.56C278.367 82.008 278.207 82.456 277.951 82.904C277.695 83.288 277.439 83.64 277.183 83.96C275.839 85.624 274.367 87.352 272.767 89.144C271.167 90.872 269.407 92.344 267.487 93.56C265.567 94.712 263.487 95.288 261.247 95.288ZM280.292 95.288C279.652 95.288 279.108 95.16 278.66 94.904C278.212 94.648 277.988 94.168 277.988 93.464C277.988 92.568 278.212 91.512 278.66 90.296C279.172 89.08 279.716 87.864 280.292 86.648C280.868 85.432 281.348 84.44 281.732 83.672C282.052 83.096 282.468 82.2 282.98 80.984C283.556 79.704 284.132 78.392 284.708 77.048C285.348 75.64 285.86 74.456 286.244 73.496C286.692 72.536 286.916 72.056 286.916 72.056C286.34 72.696 285.572 73.592 284.612 74.744C283.716 75.896 282.724 77.112 281.636 78.392C280.612 79.608 279.652 80.76 278.756 81.848C277.924 82.936 277.316 83.736 276.932 84.248C276.74 84.504 276.58 84.632 276.452 84.632C276.324 84.632 276.26 84.472 276.26 84.152C276.26 83.64 276.42 83.16 276.74 82.712C277.508 81.752 278.436 80.6 279.523 79.256C280.612 77.848 281.7 76.44 282.788 75.032C283.94 73.624 284.932 72.376 285.764 71.288C285.252 71.288 284.58 71.32 283.748 71.384C282.98 71.448 282.276 71.544 281.636 71.672C280.996 71.736 280.644 71.768 280.58 71.768C280.26 71.768 280.292 71.512 280.676 71C281.06 70.488 281.572 69.976 282.212 69.464C282.852 68.952 283.332 68.696 283.652 68.696C283.716 68.696 284.228 68.728 285.188 68.792C286.148 68.792 286.852 68.792 287.299 68.792C288.58 67.064 289.828 65.08 291.044 62.84C292.324 60.6 293.572 58.136 294.788 55.448C295.3 55.384 296.164 55.032 297.38 54.392C298.66 53.688 299.652 52.984 300.356 52.28C300.676 51.96 300.932 51.8 301.124 51.8C301.508 51.8 301.508 52.056 301.124 52.568C300.676 53.08 299.908 54.168 298.82 55.832C297.732 57.432 296.516 59.384 295.172 61.688C293.828 63.928 292.548 66.296 291.332 68.792H299.108C299.812 68.792 300.164 68.888 300.164 69.08C300.164 69.336 299.684 69.592 298.724 69.848C297.636 70.168 296.484 70.36 295.268 70.424C294.116 70.488 293.028 70.616 292.004 70.808C291.044 71 290.34 71.416 289.892 72.056C289.508 72.504 288.964 73.464 288.26 74.936C287.556 76.408 286.788 78.104 285.956 80.024C285.188 81.88 284.516 83.768 283.94 85.688C283.364 87.544 283.012 89.112 282.884 90.392V90.776C282.884 91.288 283.044 91.704 283.364 92.024C283.684 92.344 284.004 92.504 284.324 92.504C285.156 92.504 286.212 91.992 287.492 90.968C288.836 89.944 290.212 88.728 291.62 87.32C293.028 85.848 294.244 84.504 295.268 83.288C295.716 82.776 296.1 82.296 296.42 81.848C296.804 81.4 297.028 81.112 297.092 80.984C297.22 81.24 297.284 81.432 297.284 81.56C297.284 81.944 297.156 82.36 296.9 82.808C296.708 83.256 296.484 83.64 296.228 83.96C295.012 85.56 293.54 87.256 291.812 89.048C290.084 90.776 288.228 92.248 286.244 93.464C284.324 94.68 282.34 95.288 280.292 95.288Z" fill="#FFDDDD"/>
<path d="M222.53 17.5216C225.936 16.6824 228.314 13.6479 228.314 10.1432C228.314 5.9488 224.902 2.53645 220.708 2.53645C219.512 2.53645 218.329 2.82298 217.26 3.37003C215.853 1.27969 213.478 0 210.95 0C207.972 0 205.331 1.69317 204.078 4.35759C203.002 3.80289 201.813 3.51177 200.607 3.51177C196.413 3.51177 193 6.92463 193 11.1191C193 14.4962 195.209 17.4365 198.416 18.3965C198.416 18.3965 198.293 33.1961 198.293 33.3649C198.293 35.6372 209.326 35.703 210.583 35.703C211.841 35.703 222.873 35.6367 222.873 33.3649C222.873 33.3093 222.897 33.1584 222.897 33.1584V21.3847C222.897 21.117 222.681 20.9008 222.413 20.9008C222.145 20.9008 221.929 21.1175 221.929 21.3847V30.1931C220.871 30.7438 217.042 31.4667 210.733 31.4667C204.067 31.4667 200.172 30.6602 199.384 30.1315V18.0269L199.016 17.5568C196.044 16.8252 193.968 14.1776 193.968 11.1191C193.968 7.45843 196.946 4.48046 200.607 4.48046C201.819 4.48046 203.012 4.81797 204.058 5.45629L204.762 5.21769C205.759 2.63637 208.188 0.968693 210.95 0.968693C213.292 0.968693 215.485 2.22901 216.675 4.25868L217.339 4.4305C218.363 3.82481 219.528 3.50463 220.707 3.50463C224.368 3.50463 227.346 6.4826 227.346 10.1432C227.346 13.2018 225.27 15.8499 222.298 16.5815C222.038 16.6452 221.88 16.9078 221.944 17.1678C222.008 17.4273 222.27 17.5848 222.53 17.5216ZM199.385 30.8457C202.054 32.1265 210.318 32.1448 210.734 32.1448C211.143 32.1448 219.115 32.127 221.93 30.9135V33.1584C221.93 33.1584 221.918 33.2991 221.923 33.2919C221.544 33.8823 217.288 34.7353 210.584 34.7353C204.101 34.7353 199.907 33.9379 199.295 33.3516L199.385 30.8457Z" fill="white"/>
<path d="M224.078 11.4015C224.078 11.5886 224.23 11.7406 224.417 11.7406C224.604 11.7406 224.756 11.5891 224.756 11.4015C224.756 8.64126 222.51 6.39491 219.75 6.39491C219.563 6.39491 219.411 6.54633 219.411 6.73345C219.411 6.92107 219.562 7.07249 219.75 7.07249C222.136 7.07249 224.078 9.01446 224.078 11.4015Z" fill="white"/>
<path d="M197.101 10.2106C196.851 10.8586 196.723 11.5433 196.723 12.2453C196.723 12.4324 196.875 12.5844 197.062 12.5844C197.25 12.5844 197.401 12.4329 197.401 12.2453C197.401 11.6269 197.513 11.0248 197.734 10.4543C197.801 10.2799 197.714 10.0836 197.54 10.0163C197.366 9.949 197.168 10.0352 197.101 10.2106Z" fill="white"/>
<path d="M205.43 7.88819C205.528 7.72862 205.477 7.52009 205.318 7.42271C203.293 6.18329 200.563 6.39488 198.759 7.90145C198.614 8.02126 198.595 8.23489 198.715 8.37815C198.782 8.4587 198.879 8.5 198.975 8.5C199.052 8.5 199.129 8.474 199.192 8.42149C200.781 7.09642 203.179 6.90829 204.964 8.00036C205.124 8.09825 205.332 8.04828 205.43 7.88819Z" fill="white"/>
<path d="M211.692 3.23083C211.692 3.04372 211.541 2.89178 211.353 2.89178C209.589 2.89178 207.958 3.69529 206.878 5.09735C206.763 5.24571 206.791 5.45831 206.939 5.57252C207 5.62044 207.073 5.64338 207.146 5.64338C207.247 5.64338 207.347 5.59801 207.414 5.51134C208.365 4.27753 209.8 3.56987 211.353 3.56987C211.541 3.56987 211.692 3.41845 211.692 3.23083Z" fill="white"/>
<path d="M202.109 22.388C201.921 22.388 201.77 22.5395 201.77 22.7271V28.5754C201.77 28.7625 201.921 28.9145 202.109 28.9145C202.296 28.9145 202.448 28.7631 202.448 28.5754V22.7271C202.448 22.5395 202.296 22.388 202.109 22.388Z" fill="white"/>
<path d="M202.448 18.8732C202.448 18.6861 202.296 18.5342 202.109 18.5342C201.922 18.5342 201.77 18.6856 201.77 18.8732V21.3148C201.77 21.5019 201.921 21.6534 202.109 21.6534C202.296 21.6534 202.448 21.5019 202.448 21.3148V18.8732Z" fill="white"/>
<path d="M207.499 29.3295H207.503C207.689 29.3275 207.84 29.175 207.838 28.9874L207.807 25.5409C207.805 25.3548 207.653 25.2054 207.468 25.2054H207.465C207.278 25.2075 207.127 25.3604 207.129 25.5475L207.16 28.994C207.162 29.1801 207.314 29.3295 207.499 29.3295Z" fill="white"/>
<path d="M207.796 24.3275L207.748 18.9257C207.746 18.7396 207.596 18.5902 207.409 18.5902H207.405C207.219 18.5923 207.069 18.7447 207.07 18.9323L207.118 24.3336C207.12 24.5197 207.27 24.669 207.457 24.669H207.461V24.6696C207.647 24.6675 207.798 24.5151 207.796 24.3275Z" fill="white"/>
<path d="M212.709 28.8691C212.896 28.8691 213.048 28.7177 213.048 28.5305V24.2209C213.048 24.0333 212.896 23.8818 212.709 23.8818C212.522 23.8818 212.37 24.0333 212.37 24.2209V28.5305C212.37 28.7177 212.522 28.8691 212.709 28.8691Z" fill="white"/>
<path d="M212.709 23.32C212.896 23.32 213.048 23.1686 213.048 22.981V18.9181C213.048 18.7309 212.896 18.579 212.709 18.579C212.522 18.579 212.37 18.7304 212.37 18.9181V22.981C212.37 23.1681 212.521 23.32 212.709 23.32Z" fill="white"/>
<path d="M218.009 22.1591C217.822 22.1591 217.67 22.3105 217.67 22.4981V28.3501C217.67 28.5377 217.821 28.6891 218.009 28.6891C218.197 28.6891 218.348 28.5377 218.348 28.3501V22.4981C218.348 22.3105 218.197 22.1591 218.009 22.1591Z" fill="white"/>
<path d="M218.348 19.098C218.348 18.9109 218.197 18.759 218.009 18.759C217.822 18.759 217.67 18.9104 217.67 19.098V21.351C217.67 21.5386 217.821 21.69 218.009 21.69C218.197 21.69 218.348 21.5386 218.348 21.351V19.098Z" fill="white"/>
</svg>
